HIERARCHY
ROOT hip
{
  OFFSET 0 0 0
  CHANNELS 6 Xposition Yposition Zposition Zrotation Yrotation Xrotation
  JOINT abdomen
  {
    OFFSET 0 20.6881 -0.73152
    CHANNELS 3 Zrotation Xrotation Yrotation
    JOINT chest
    {
      OFFSET 0 11.7043 -0.48768
      CHANNELS 3 Zrotation Xrotation Yrotation
      JOINT neck
      {
        OFFSET 0 22.1894 -2.19456
        CHANNELS 3 Zrotation Xrotation Yrotation
        JOINT head
        {
          OFFSET -0.24384 7.07133 1.2192
          CHANNELS 3 Zrotation Xrotation Yrotation
          JOINT leftEye
          {
            OFFSET 4.14528 8.04674 8.04672
            CHANNELS 3 Zrotation Xrotation Yrotation
            End Site
            {
              OFFSET 1 0 0
            }
          }
          JOINT rightEye
          {
            OFFSET -3.6576 8.04674 8.04672
            CHANNELS 3 Zrotation Xrotation Yrotation
            End Site
            {
              OFFSET 1 0 0
            }
          }
        }
      }
      JOINT rCollar
      {
        OFFSET -2.68224 19.2634 -4.8768
        CHANNELS 3 Zrotation Xrotation Yrotation
        JOINT rShldr
        {
          OFFSET -8.77824 -1.95073 1.46304
          CHANNELS 3 Zrotation Xrotation Yrotation
          JOINT rForeArm
          {
            OFFSET -28.1742 -1.7115 0.48768
            CHANNELS 3 Zrotation Xrotation Yrotation
            JOINT rHand
            {
              OFFSET -22.5879 0.773209 7.07136
              CHANNELS 3 Zrotation Xrotation Yrotation
              JOINT rThumb1
              {
                OFFSET -1.2192 -0.487915 3.41376
                CHANNELS 3 Zrotation Xrotation Yrotation
                JOINT rThumb2
                {
                  OFFSET -3.37035 -0.52449 3.41376
                  CHANNELS 3 Zrotation Xrotation Yrotation
                  End Site
                  {
                    OFFSET -1.78271 -1.18214 1.43049
                  }
                }
              }
              JOINT rIndex1
              {
                OFFSET -7.75947 0.938293 5.60832
                CHANNELS 3 Zrotation Xrotation Yrotation
                JOINT rIndex2
                {
                  OFFSET -2.54057 -0.884171 1.56538
                  CHANNELS 3 Zrotation Xrotation Yrotation
                  End Site
                  {
                    OFFSET -1.62519 -0.234802 1.16502
                  }
                }
              }
              JOINT rMid1
              {
                OFFSET -8.24714 1.18213 3.41376
                CHANNELS 3 Zrotation Xrotation Yrotation
                JOINT rMid2
                {
                  OFFSET -3.10165 -0.590103 1.0647
                  CHANNELS 3 Zrotation Xrotation Yrotation
                  End Site
                  {
                    OFFSET -2.48547 -0.328903 0.83742
                  }
                }
              }
              JOINT rRing1
              {
                OFFSET -8.82822 0.546677 1.51678
                CHANNELS 3 Zrotation Xrotation Yrotation
                JOINT rRing2
                {
                  OFFSET -2.60934 -0.819778 -0.0198488
                  CHANNELS 3 Zrotation Xrotation Yrotation
                  End Site
                  {
                    OFFSET -2.33842 -0.294052 0.168128
                  }
                }
              }
              JOINT rPinky1
              {
                OFFSET -8.27202 -0.0477905 -0.4584
                CHANNELS 3 Zrotation Xrotation Yrotation
                JOINT rPinky2
                {
                  OFFSET -1.82734 -0.647385 -0.700984
                  CHANNELS 3 Zrotation Xrotation Yrotation
                  End Site
                  {
                    OFFSET -1.69225 -0.51767 -0.607171
                  }
                }
              }
            }
          }
        }
      }
      JOINT lCollar
      {
        OFFSET 2.68224 19.2634 -4.8768
        CHANNELS 3 Zrotation Xrotation Yrotation
        JOINT lShldr
        {
          OFFSET 8.77824 -1.95073 1.46304
          CHANNELS 3 Zrotation Xrotation Yrotation
          JOINT lForeArm
          {
            OFFSET 28.1742 -1.7115 0.48768
            CHANNELS 3 Zrotation Xrotation Yrotation
            JOINT lHand
            {
              OFFSET 22.5879 0.773209 7.07136
              CHANNELS 3 Zrotation Xrotation Yrotation
              JOINT lThumb1
              {
                OFFSET 1.2192 -0.487915 3.41376
                CHANNELS 3 Zrotation Xrotation Yrotation
                JOINT lThumb2
                {
                  OFFSET 3.37035 -0.52449 3.41376
                  CHANNELS 3 Zrotation Xrotation Yrotation
                  End Site
                  {
                    OFFSET 1.78271 -1.18214 1.43049
                  }
                }
              }
              JOINT lIndex1
              {
                OFFSET 7.75947 0.938293 5.60832
                CHANNELS 3 Zrotation Xrotation Yrotation
                JOINT lIndex2
                {
                  OFFSET 2.54057 -0.884171 1.56538
                  CHANNELS 3 Zrotation Xrotation Yrotation
                  End Site
                  {
                    OFFSET 1.62519 -0.234802 1.16502
                  }
                }
              }
              JOINT lMid1
              {
                OFFSET 8.24714 1.18213 3.41376
                CHANNELS 3 Zrotation Xrotation Yrotation
                JOINT lMid2
                {
                  OFFSET 3.10165 -0.590103 1.0647
                  CHANNELS 3 Zrotation Xrotation Yrotation
                  End Site
                  {
                    OFFSET 2.48547 -0.328903 0.83742
                  }
                }
              }
              JOINT lRing1
              {
                OFFSET 8.82822 0.546677 1.51678
                CHANNELS 3 Zrotation Xrotation Yrotation
                JOINT lRing2
                {
                  OFFSET 2.60934 -0.819778 -0.0198488
                  CHANNELS 3 Zrotation Xrotation Yrotation
                  End Site
                  {
                    OFFSET 2.33842 -0.294052 0.168128
                  }
                }
              }
              JOINT lPinky1
              {
                OFFSET 8.27202 -0.0477905 -0.4584
                CHANNELS 3 Zrotation Xrotation Yrotation
                JOINT lPinky2
                {
                  OFFSET 1.82734 -0.647385 -0.700984
                  CHANNELS 3 Zrotation Xrotation Yrotation
                  End Site
                  {
                    OFFSET 1.69225 -0.51767 -0.607171
                  }
                }
              }
            }
          }
        }
      }
    }
  }
  JOINT rButtock
  {
    OFFSET -8.77824 4.35084 1.2192
    CHANNELS 3 Zrotation Xrotation Yrotation
    JOINT rThigh
    {
      OFFSET 0 -1.70687 -2.19456
      CHANNELS 3 Zrotation Xrotation Yrotation
      JOINT rShin
      {
        OFFSET 0 -36.8199 0.73152
        CHANNELS 3 Zrotation Xrotation Yrotation
        JOINT rFoot
        {
          OFFSET 0.73152 -45.1104 -5.12064
          CHANNELS 3 Zrotation Xrotation Yrotation
          End Site
          {
            OFFSET -1.1221 -3.69964 12.103
          }
        }
      }
    }
  }
  JOINT lButtock
  {
    OFFSET 8.77824 4.35084 1.2192
    CHANNELS 3 Zrotation Xrotation Yrotation
    JOINT lThigh
    {
      OFFSET 0 -1.70687 -2.19456
      CHANNELS 3 Zrotation Xrotation Yrotation
      JOINT lShin
      {
        OFFSET 0 -36.8199 0.73152
        CHANNELS 3 Zrotation Xrotation Yrotation
        JOINT lFoot
        {
          OFFSET -0.73152 -45.1104 -5.12064
          CHANNELS 3 Zrotation Xrotation Yrotation
          End Site
          {
            OFFSET 1.1221 -3.69964 12.103
          }
        }
      }
    }
  }
}
MOTION
Frames:	4
Frame Time:	0.00833333
132.848 -65.0018 7.3798 0.0 0.0 0.0 -0.748004 -0.00481023 -0.0211916 -0.206622 -0.00702245 -0.0358037 8.6739e-15 -7.95139e-16 -7.45443e-17 2.59694e-14 3.18055e-15 -2.50034e-16 -0.0 0.0 0.0 -0.0 0.0 0.0 4.32242e-15 6.7944e-18 1.49089e-16 9.22281e-14 3.85145e-16 5.96354e-16 1.5463e-12 -4.54223e-13 -6.36111e-15 1.77229e-11 5.06603e-13 -1.46306e-13 4.17995e-11 1.09764e-13 -3.33958e-13 7.21724e-11 1.90833e-13 -5.79656e-13 4.18016e-11 1.09729e-13 -3.435e-13 7.73091 5.47488 0.417314 4.17988e-11 1.09332e-13 -3.30778e-13 2.90554 0.965183 0.102902 4.18013e-11 1.09232e-13 -3.33958e-13 10.2786 0.731801 0.0259123 4.17907e-11 1.14102e-13 -3.33958e-13 2.22167 -0.733487 -0.20892 4.22561e-15 5.82377e-18 -1.49089e-16 8.83269e-14 6.58474e-16 -1.19271e-15 1.55161e-12 4.73505e-13 -5.08889e-14 1.7723e-11 -4.12279e-13 -9.85972e-14 4.18112e-11 1.27535e-13 -3.33958e-13 7.22149e-11 2.22639e-13 -5.82042e-13 4.181e-11 1.25632e-13 -3.24417e-13 -7.73091 5.47488 -0.417314 4.18121e-11 1.26725e-13 -3.40319e-13 -2.90554 0.965183 -0.102902 4.18092e-11 1.27322e-13 -3.33163e-13 -10.2786 0.731801 -0.0259123 4.18223e-11 1.31993e-13 -3.435e-13 -2.22167 -0.733487 0.20892 -2.03217e-16 0.0 -3.88251e-19 -0.106475 -2.11406 -0.0168831 -0.00852592 -1.72219 -0.0716368 -0.45978 3.83676 0.129349 2.03217e-16 0.0 3.88251e-19 -1.04175 -4.96748 0.0902595 0.000852523 3.44623 -0.0073531 0.480364 1.52184 -0.085465
54.4304 8.9918 -15.4567 85.6919 72.8462 177.426 -2.65453 0.239629 0.346326 -1.15327 -0.875781 -0.0125296 5.04114 2.01947 3.95882 -6.27316 -0.939342 6.6816 -0.0 0.0 0.0 -0.0 0.0 0.0 3.11914e-15 -2.29161e-13 -1.67383e-13 -1.91069 -16.6829 -0.964172 -13.1469 -10.1834 13.9302 0.0616177 -5.51108 -0.76165 -8.84794e-10 -1.52562e-09 4.04915e-11 -1.52442e-09 -2.63698e-09 5.23828e-11 -8.84793e-10 -1.52562e-09 4.04839e-11 7.73091 5.47488 0.417314 -8.84795e-10 -1.52562e-09 4.04957e-11 2.90554 0.965183 0.102902 -8.84793e-10 -1.52562e-09 4.04936e-11 10.2786 0.731801 0.0259123 -8.84801e-10 -1.52562e-09 4.0496e-11 2.22167 -0.733487 -0.20892 3.01581e-15 -2.29159e-13 -1.67665e-13 -7.18393 -11.3476 -8.7625 18.6479 -16.2752 -15.1272 -0.173208 -9.25461 1.24022 6.66773e-10 -1.02262e-10 6.99571e-10 1.13367e-09 -1.52931e-10 1.22151e-09 6.66771e-10 -1.02262e-10 6.9958e-10 -7.73091 5.47488 -0.417314 6.66774e-10 -1.02262e-10 6.99567e-10 -2.90554 0.965183 -0.102902 6.66768e-10 -1.02262e-10 6.9957e-10 -10.2786 0.731801 -0.0259123 6.66782e-10 -1.02258e-10 6.99559e-10 -2.22167 -0.733487 0.20892 -2.03217e-16 0.0 -3.88251e-19 -11.1063 -5.12426 -3.07194 0.00112672 -0.250068 0.23301 2.48017 -0.690575 -11.0107 2.03217e-16 0.0 3.88251e-19 0.45979 -17.4678 16.8295 0.576987 26.2342 -0.35086 -0.116504 -5.08194 3.09565
54.4382 8.99977 -15.4894 85.5529 72.9822 177.338 -4.67415 0.496681 0.732192 -2.15639 -1.79349 0.0112208 10.0681 4.12183 8.15919 -12.6701 -1.89341 13.7483 -0.0 0.0 0.0 -0.0 0.0 0.0 1.1659e-15 -4.82128e-13 -3.49578e-13 -4.65604 -34.3031 -2.30042 -21.6296 -18.904 29.9617 -0.0354049 -11.3294 -1.58999 -1.88624e-09 -3.17773e-09 8.12544e-11 -3.24991e-09 -5.49255e-09 1.03821e-10 -1.88624e-09 -3.17773e-09 8.12489e-11 7.73091 5.47488 0.417314 -1.88624e-09 -3.17773e-09 8.12596e-11 2.90554 0.965183 0.102902 -1.88624e-09 -3.17773e-09 8.12588e-11 10.2786 0.731801 0.0259123 -1.88625e-09 -3.17773e-09 8.12638e-11 2.22167 -0.733487 -0.20892 1.05494e-15 -4.82122e-13 -3.49842e-13 -18.7567 -22.4366 -19.1707 28.3163 -29.5196 -34.881 0.102143 -19.0265 2.6641 1.34037e-09 -2.10729e-10 1.45522e-09 2.27769e-09 -3.14728e-10 2.54086e-09 1.34036e-09 -2.10726e-10 1.45523e-09 -7.73091 5.47488 -0.417314 1.34037e-09 -2.10727e-10 1.45521e-09 -2.90554 0.965183 -0.102902 1.34036e-09 -2.10727e-10 1.45521e-09 -10.2786 0.731801 -0.0259123 1.34037e-09 -2.10725e-10 1.4552e-09 -2.22167 -0.733487 0.20892 -2.03217e-16 0.0 -3.88251e-19 -23.0835 -8.25929 -6.34386 -0.00570373 1.29264 0.554978 3.71719 -5.06568 -22.8835 2.03217e-16 0.0 3.88251e-19 10.2447 -26.5767 37.3739 1.63945 50.3213 -1.00189 0.063871 -12.0006 6.57815
54.4174 9.00212 -15.487 85.5411 73.1257 177.403 -6.47699 0.728392 1.08144 -3.04444 -2.6133 0.0340584 14.2891 5.94257 11.9341 -18.1765 -2.66534 20.0647 -0.0 0.0 0.0 -0.0 0.0 0.0 7.12564e-16 -6.87497e-13 -5.02446e-13 -8.20522 -49.9754 -4.31071 -25.0588 -23.1489 45.6608 -0.270686 -16.5213 -2.37239 -2.73798e-09 -4.57708e-09 1.22143e-10 -4.71759e-09 -7.91131e-09 1.58308e-10 -2.73798e-09 -4.57708e-09 1.22139e-10 7.73091 5.47488 0.417314 -2.73798e-09 -4.57708e-09 1.22149e-10 2.90554 0.965183 0.102902 -2.73798e-09 -4.57708e-09 1.22149e-10 10.2786 0.731801 0.0259123 -2.73798e-09 -4.57708e-09 1.22156e-10 2.22167 -0.733487 -0.20892 5.96229e-16 -6.87489e-13 -5.02696e-13 -32.9378 -30.6121 -30.3417 29.0857 -34.0112 -56.1764 0.813566 -27.7083 4.14865 1.9167e-09 -3.07042e-10 2.09938e-09 3.25658e-09 -4.59239e-10 3.66569e-09 1.91669e-09 -3.07038e-10 2.09939e-09 -7.73091 5.47488 -0.417314 1.9167e-09 -3.07039e-10 2.09938e-09 -2.90554 0.965183 -0.102902 1.91669e-09 -3.0704e-10 2.09938e-09 -10.2786 0.731801 -0.0259123 1.9167e-09 -3.07039e-10 2.09936e-09 -2.22167 -0.733487 0.20892 -2.03217e-16 0.0 -3.88251e-19 -34.0802 -11.0229 -9.31861 -0.0265563 2.69389 0.843163 3.33921 -8.16672 -33.6739 2.03217e-16 0.0 3.88251e-19 24.1728 -28.1063 57.2866 4.09133 71.7883 -2.97527 0.971723 -18.0561 9.91409
